HIERARCHY
ROOT Hips
{
	OFFSET 0.000000 0.000000 0.000000
	CHANNELS 6 Xposition Yposition Zposition Zrotation Yrotation Xrotation 
	JOINT LeftUpLeg_virtual
	{
		OFFSET 0.000000 0.000000 0.000000
		CHANNELS 3 Zrotation Yrotation Xrotation
		JOINT LeftUpLeg
		{
			OFFSET 10.205400 -3.823500 0.155100
			CHANNELS 3 Zrotation Yrotation Xrotation
			JOINT LeftLeg
			{
				OFFSET 0.708757 -12.982077 0.567790
				CHANNELS 3 Zrotation Yrotation Xrotation
				JOINT LeftFoot
				{
					OFFSET -0.708756 -10.717838 -2.184338
					CHANNELS 3 Zrotation Yrotation Xrotation
					JOINT LeftToeBase
					{
						OFFSET 0.108149 -7.191104 7.560241
						CHANNELS 3 Zrotation Yrotation Xrotation
						End Site
						{
							OFFSET 0.000000 0.000000 0.000000
						}
					}
				}
			}
		}
	}
	JOINT RightUpLeg_virtual
	{
		OFFSET 0.000000 0.000000 0.000000
		CHANNELS 3 Zrotation Yrotation Xrotation
		JOINT RightUpLeg
		{
			OFFSET -10.205400 -3.823500 0.005500
			CHANNELS 3 Zrotation Yrotation Xrotation
			JOINT RightLeg
			{
				OFFSET -0.708756 -12.982134 0.610632
				CHANNELS 3 Zrotation Yrotation Xrotation
				JOINT RightFoot
				{
					OFFSET 0.708754 -10.717769 -1.945823
					CHANNELS 3 Zrotation Yrotation Xrotation
					JOINT RightToeBase
					{
						OFFSET -0.108140 -7.191069 7.372968
						CHANNELS 3 Zrotation Yrotation Xrotation
						End Site
						{
							OFFSET 0.000000 0.000000 0.000000
						}
					}
				}
			}
		}
	}
	JOINT Spine_virtual
	{
		OFFSET 0.000000 0.000000 0.000000
		CHANNELS 3 Zrotation Yrotation Xrotation
		JOINT Spine
		{
			OFFSET 0.000000 6.876099 0.125700
			CHANNELS 3 Zrotation Yrotation Xrotation
			JOINT Spine1
			{
				OFFSET 0.000000 8.022060 0.146608
				CHANNELS 3 Zrotation Yrotation Xrotation
				JOINT Spine2
				{
					OFFSET 0.000000 9.168068 0.167552
					CHANNELS 3 Zrotation Yrotation Xrotation
					JOINT Neck_virtual
					{
						OFFSET 0.000000 0.000000 0.000000
						CHANNELS 3 Zrotation Yrotation Xrotation
						JOINT Neck
						{
							OFFSET 0.000000 10.314075 0.188496
							CHANNELS 3 Zrotation Yrotation Xrotation
							JOINT Head
							{
								OFFSET 0.000000 7.643700 -2.377400
								CHANNELS 3 Zrotation Yrotation Xrotation
								End Site
								{
									OFFSET 0.000000 0.000000 0.000000
								}
							}
						}
					}
					JOINT LeftShoulder_virtual
					{
						OFFSET 0.000000 0.000000 0.000000
						CHANNELS 3 Zrotation Yrotation Xrotation
						JOINT LeftShoulder
						{
							OFFSET 4.392200 8.824978 0.174984
							CHANNELS 3 Zrotation Yrotation Xrotation
							JOINT LeftArm
							{
								OFFSET 8.771219 -2.981674 -0.026999
								CHANNELS 3 Zrotation Yrotation Xrotation
								JOINT LeftForeArm
								{
									OFFSET 8.512804 0.000000 -0.000000
									CHANNELS 3 Zrotation Yrotation Xrotation
									JOINT LeftHand
									{
										OFFSET 18.484802 0.000000 -0.000000
										CHANNELS 3 Zrotation Yrotation Xrotation
										End Site
										{
											OFFSET 0.000000 0.000000 0.000000
										}
									}
								}
							}
						}
					}
					JOINT RightShoulder_virtual
					{
						OFFSET 0.000000 0.000000 0.000000
						CHANNELS 3 Zrotation Yrotation Xrotation
						JOINT RightShoulder
						{
							OFFSET -4.392200 8.824993 0.141379
							CHANNELS 3 Zrotation Yrotation Xrotation
							JOINT RightArm
							{
								OFFSET -8.771282 -2.981682 -0.094208
								CHANNELS 3 Zrotation Yrotation Xrotation
								JOINT RightForeArm
								{
									OFFSET -8.494598 0.000000 0.000000
									CHANNELS 3 Zrotation Yrotation Xrotation
									JOINT RightHand
									{
										OFFSET -18.483803 0.000000 0.000001
										CHANNELS 3 Zrotation Yrotation Xrotation
										End Site
										{
											OFFSET 0.000000 0.000000 0.000000
										}
									}
								}
							}
						}
					}
				}
			}
		}
	}
}
MOTION
Frames: 9
Frame Time: 0.033333
22.708750 35.704590 68.839180 179.318379 20.926211 179.715664 -3.934843 -0.821318 6.025513 4.816826 6.264405 -16.468655 13.214921 2.246257 21.315487 -0.024631 -1.782861 10.659717 0.000000 0.000000 0.000000 0.923693 2.367651 3.124635 14.226236 9.507173 -10.659307 -8.880249 -3.641827 14.566304 2.195561 5.760553 7.116135 0.000000 0.000000 0.000000 -1.454479 2.239742 -7.062644 0.719835 -11.491841 -10.804707 1.672382 -3.883811 5.700611 -0.032726 0.208191 -0.040624 -0.212510 -0.260501 18.735434 -2.756095 -10.225023 7.077167 0.000000 0.000000 0.000000 2.791040 0.462312 16.497455 -24.420177 -1.773839 -21.038081 -108.397561 21.078549 -122.238079 24.300730 -80.323598 15.113551 0.000000 0.000000 0.000000 -2.149883 1.593498 16.245190 35.798189 20.866165 14.077600 15.445305 -17.656150 28.809936 -12.119576 16.930311 -4.477827 0.000000 0.000000 0.000000 
22.538185 35.726425 68.710785 178.986022 21.380172 179.634248 -3.912200 -0.960768 6.284219 4.766000 5.944516 -15.811632 13.447353 2.012412 21.308157 -0.078387 -1.708834 9.546771 0.000000 0.000000 0.000000 1.191778 1.948945 2.993122 14.305343 9.077774 -10.674328 -8.788800 -4.143921 14.176106 2.254608 5.809199 7.222531 0.000000 0.000000 0.000000 -1.620337 2.231211 -7.376933 0.785151 -11.385199 -11.080838 1.740854 -3.945542 5.639094 -0.015168 0.217389 -0.032360 -0.230171 -0.213904 18.708462 -2.892345 -10.166499 7.129708 0.000000 0.000000 0.000000 2.853451 0.610102 16.338128 -24.516564 -1.660725 -21.025875 -108.203522 21.097134 -122.119875 25.778201 -80.190068 13.450114 0.000000 0.000000 0.000000 -2.218165 1.640669 16.156667 35.581645 21.019340 13.927399 15.261047 -17.403134 28.113434 -12.132329 17.285805 -4.435014 0.000000 0.000000 0.000000 
22.299702 35.755451 68.511177 179.043792 21.616007 179.720090 -4.025978 -0.839482 6.104952 4.304278 6.042198 -15.674174 13.635563 1.958679 21.803994 -0.082199 -1.460262 9.156900 0.000000 0.000000 0.000000 0.974762 2.053067 2.876938 14.073839 9.033960 -10.418829 -8.907757 -4.300764 13.987473 2.545989 5.957214 7.436445 0.000000 0.000000 0.000000 -1.564466 2.181146 -7.692462 0.969692 -11.267344 -11.359459 1.722495 -3.937642 5.572619 0.006083 0.238338 0.037701 -0.030656 -0.509901 18.692230 -3.092699 -9.969495 7.452588 0.000000 0.000000 0.000000 3.051716 0.600947 16.320599 -24.663946 -1.719275 -21.136691 -107.879600 21.232278 -121.834715 26.517941 -79.048320 12.344859 0.000000 0.000000 0.000000 -2.041867 1.573710 15.928565 35.181526 20.734497 13.541377 15.226964 -17.295547 27.372125 -12.125222 17.679357 -4.473888 0.000000 0.000000 0.000000 
22.013702 35.764923 68.296013 179.118282 21.994737 179.852268 -4.137082 -0.549179 5.796726 3.715666 6.266961 -15.673696 13.840098 1.831630 22.519113 -0.176197 -1.200500 8.799334 0.000000 0.000000 0.000000 0.679081 2.314632 2.675960 13.912014 8.969465 -10.097996 -9.097038 -4.511229 13.901108 2.814458 6.016014 7.537429 0.000000 0.000000 0.000000 -1.589560 2.138086 -8.048275 1.299446 -11.140906 -11.667788 1.813517 -3.849383 5.544997 0.017210 0.253712 0.008130 0.094611 -0.412469 18.663357 -3.473285 -9.799880 7.883056 0.000000 0.000000 0.000000 3.016818 0.525660 16.323447 -24.834360 -1.738221 -21.170217 -107.494275 21.573888 -121.386108 26.619544 -76.621103 11.805634 0.000000 0.000000 0.000000 -1.872475 1.575130 15.676211 34.718497 20.160830 12.954471 15.385310 -17.376934 26.678347 -11.963381 17.787414 -4.276495 0.000000 0.000000 0.000000 
21.714947 35.759308 68.103241 179.188715 22.258642 179.906541 -4.260044 -0.272421 5.492450 3.106188 6.455143 -15.707869 14.068529 1.662344 23.214992 -0.379253 -0.984929 8.738670 0.000000 0.000000 0.000000 0.362856 2.463978 2.491414 13.786914 8.953996 -9.763784 -9.322595 -4.706990 13.909849 3.086547 6.020399 7.523652 0.000000 0.000000 0.000000 -1.668627 2.122759 -8.316686 1.626735 -11.026665 -11.949971 1.880795 -3.872707 5.550719 0.021559 0.250342 -0.027792 0.198263 -0.349484 18.565311 -4.037770 -9.743506 8.449246 0.000000 0.000000 0.000000 3.183960 0.641960 16.175819 -24.981526 -1.864152 -21.172878 -106.950080 22.084802 -120.739740 26.059229 -73.013479 11.915788 0.000000 0.000000 0.000000 -1.754350 1.596902 15.472363 34.176320 19.503062 12.249883 15.722669 -17.569540 26.415719 -11.733244 17.341873 -3.996343 0.000000 0.000000 0.000000 
21.407892 35.759777 67.941864 179.230666 22.510804 179.963860 -4.437549 -0.032048 5.217289 2.580594 6.421505 -15.735680 14.274259 1.519516 23.797694 -0.647178 -0.817023 8.644162 0.000000 0.000000 0.000000 0.068870 2.681385 2.275646 13.619700 8.979083 -9.478728 -9.569735 -4.822217 14.070232 3.383765 6.012109 7.333683 0.000000 0.000000 0.000000 -1.816710 2.330740 -8.568682 1.969331 -10.952319 -12.290788 1.939843 -3.861327 5.633754 0.060734 0.245306 0.064002 0.256851 -0.238847 18.368380 -4.659499 -9.688161 9.055217 0.000000 0.000000 0.000000 3.207938 0.641727 16.008766 -25.030562 -2.030362 -21.096277 -106.218683 22.903115 -120.122455 25.285154 -69.130681 12.179928 0.000000 0.000000 0.000000 -1.766692 1.601446 15.246621 33.634495 18.595526 11.516516 16.392995 -17.783543 26.413784 -11.421809 16.444579 -3.469151 0.000000 0.000000 0.000000 
21.093346 35.758560 67.793350 179.241335 22.608442 179.967138 -4.619698 0.206908 5.047693 2.053438 6.390210 -15.907898 14.519317 1.345750 24.293219 -0.859708 -0.652071 8.586599 0.000000 0.000000 0.000000 -0.184690 2.883221 2.158823 13.349360 9.110397 -9.332375 -9.779903 -4.837710 14.260301 3.722407 6.000108 7.229839 0.000000 0.000000 0.000000 -1.925451 2.305647 -8.735041 2.334752 -10.937211 -12.672449 1.922766 -3.719475 5.758779 0.047618 0.200418 0.014749 0.230614 -0.176709 18.233982 -5.246180 -9.570352 9.556999 0.000000 0.000000 0.000000 3.181290 0.710269 15.961570 -24.807636 -2.119388 -20.962409 -105.281424 24.018913 -119.421322 25.167002 -65.089558 11.863093 0.000000 0.000000 0.000000 -1.743968 1.690051 15.120403 33.120342 17.705867 10.841097 17.422076 -18.095662 26.567322 -11.247734 15.316455 -3.502801 0.000000 0.000000 0.000000 
20.797047 35.760334 67.665604 179.248397 22.359804 179.958532 -4.753104 0.337067 4.950975 1.488039 6.370425 -16.202604 14.795957 1.121328 24.668215 -0.944456 -0.476328 8.698517 0.000000 0.000000 0.000000 -0.374286 2.913903 2.198202 12.962541 9.286846 -9.388092 -9.917883 -4.808224 14.419726 4.071135 5.947263 7.340032 0.000000 0.000000 0.000000 -2.231194 2.498054 -8.799752 2.752682 -10.878884 -13.100725 1.872826 -3.913982 5.948756 0.025180 0.136315 0.015297 0.121110 0.025033 18.161101 -5.953453 -9.619048 10.080237 0.000000 0.000000 0.000000 3.009352 0.680623 16.049717 -24.386967 -2.337928 -20.834239 -104.241118 25.445593 -118.975967 25.189441 -61.312484 11.420527 0.000000 0.000000 0.000000 -1.814013 1.717386 15.074914 32.674467 16.717578 10.298282 18.829150 -18.284198 26.073120 -11.061914 14.336437 -3.414982 0.000000 0.000000 0.000000 
20.496384 35.763424 67.539513 179.297506 22.106032 -179.945377 -4.805347 0.292826 4.981915 0.889499 6.114904 -16.584488 15.032095 1.015814 25.110432 -0.824883 -0.294103 8.480919 0.000000 0.000000 0.000000 -0.480497 3.013015 2.267791 12.419590 9.465992 -9.641516 -9.978129 -4.686521 14.669998 4.394778 5.887250 7.391679 0.000000 0.000000 0.000000 -2.298107 2.424112 -8.865562 3.045012 -10.728623 -13.597851 1.794055 -3.883413 6.166307 0.035402 0.221403 0.061628 0.054664 -0.024113 18.220674 -6.408051 -9.485190 10.490833 0.000000 0.000000 0.000000 2.872762 0.585875 16.124077 -23.642205 -2.289966 -20.590589 -103.182657 26.750458 -118.543179 25.686714 -57.781358 10.369873 0.000000 0.000000 0.000000 -1.900999 1.698481 15.224138 32.243978 15.882333 9.932043 20.421834 -18.513187 25.801166 -10.998725 13.337979 -3.492382 0.000000 0.000000 0.000000 
